<?xml version="1.0" encoding="iso-8859-1"?>
<!-- Generator: Adobe Illustrator 16.0.0, SVG Export Plug-In . SVG Version: 6.00 Build 0)  -->
<!DOCTYPE svg PUBLIC "-//W3C//DTD SVG 1.1//EN" "http://www.w3.org/Graphics/SVG/1.1/DTD/svg11.dtd">
<svg version="1.1" id="Capa_1" xmlns="http://www.w3.org/2000/svg" xmlns:xlink="http://www.w3.org/1999/xlink" x="0px" y="0px"
	 width="97.75px" height="97.75px" viewBox="0 0 97.75 97.75" style="enable-background:new 0 0 97.75 97.75;" xml:space="preserve"
	>
<g>
	<path d="M48.875,0C21.882,0,0,21.882,0,48.875S21.882,97.75,48.875,97.75S97.75,75.868,97.75,48.875S75.868,0,48.875,0z
		 M42.937,63.857c1.642,1.693,3.636,2.541,5.978,2.541h16.876c2.339,0,4.352,0.865,6.023,2.593c1.677,1.726,2.511,3.794,2.511,6.21
		c0,2.415-0.834,4.488-2.511,6.211C70.141,83.137,68.137,84,65.793,84h-16.87c-7.026,0-13.03-2.572-18.017-7.72
		c-4.989-5.146-7.482-11.345-7.482-18.597V22.558c0-2.484,0.831-4.575,2.493-6.269c1.66-1.691,3.69-2.539,6.085-2.539
		c2.325,0,4.325,0.862,5.981,2.592c1.664,1.723,2.496,3.792,2.496,6.21v8.799h25.287c2.351,0,4.363,0.863,6.045,2.59
		c1.681,1.725,2.517,3.796,2.517,6.213c0,2.412-0.836,4.484-2.513,6.209c-1.674,1.726-3.684,2.588-6.022,2.588H40.477v8.724
		C40.477,60.1,41.296,62.158,42.937,63.857z"/>
</g>
<g>
</g>
<g>
</g>
<g>
</g>
<g>
</g>
<g>
</g>
<g>
</g>
<g>
</g>
<g>
</g>
<g>
</g>
<g>
</g>
<g>
</g>
<g>
</g>
<g>
</g>
<g>
</g>
<g>
</g>
</svg>
